# xmcd
#
# Track frame offsets:
#	150
#	12472
#	25001
#	37811
#
# Disc length: 747 seconds
#
# Revision: 1
# Processed by: cddbd v1.5.2PL0 Copyright (c) Steve Scherf et al.
# Submitted via: EasyCDDAExtractor 12.0.4.1
#
DISCID=2102e904
DTITLE=Cobra Lilies - Crazy Summer Sweater Party
DYEAR=2010
DGENRE=Indie
TTITLE0=Wild Love
TTITLE1=Lonesome Kitty Cat on the Range
TTITLE2=Time Travel Girl
TTITLE3=She Won't Come Back
EXTD=
EXTT0=
EXTT1=
EXTT2=
EXTT3=
PLAYORDER=
